<svg width="20" height="20" viewBox="0 0 20 20" fill="none" xmlns="http://www.w3.org/2000/svg">
<path d="M12.5 7.5L7.5 12.5" stroke="white" stroke-width="1.25" stroke-linecap="round" stroke-linejoin="round"/>
<path d="M8.33331 10L9.99998 11.6667" stroke="white" stroke-width="1.25" stroke-linecap="round" stroke-linejoin="round"/>
<path d="M10 8.33334L11.6667 10" stroke="white" stroke-width="1.25" stroke-linecap="round" stroke-linejoin="round"/>
<path d="M6.66667 17.5C6.66667 16.3949 6.22768 15.3351 5.44628 14.5537C4.66488 13.7723 3.60507 13.3333 2.5 13.3333" stroke="white" stroke-width="1.25" stroke-linecap="round" stroke-linejoin="round"/>
<path d="M13.3333 2.5C7.35 2.5 2.5 7.35 2.5 13.3333C2.5 14.4384 2.93899 15.4982 3.72039 16.2796C4.50179 17.061 5.5616 17.5 6.66667 17.5C12.65 17.5 17.5 12.65 17.5 6.66667C17.5 5.5616 17.061 4.50179 16.2796 3.72039C15.4982 2.93899 14.4384 2.5 13.3333 2.5" stroke="white" stroke-width="1.25" stroke-linecap="round" stroke-linejoin="round"/>
<path d="M13.3333 2.5C13.3333 3.60507 13.7723 4.66488 14.5537 5.44628C15.3351 6.22768 16.3949 6.66667 17.5 6.66667" stroke="white" stroke-width="1.25" stroke-linecap="round" stroke-linejoin="round"/>
</svg>
