<svg width="20" height="20" viewBox="0 0 20 20" fill="none" xmlns="http://www.w3.org/2000/svg">
<path d="M7.49998 13.3333C6.80037 12.8086 6.28359 12.0771 6.02284 11.2424C5.76209 10.4076 5.77059 9.51202 6.04713 8.68239C6.32368 7.85275 6.85425 7.13116 7.56369 6.61983C8.27313 6.10849 9.12547 5.83334 9.99998 5.83334C10.8745 5.83334 11.7268 6.10849 12.4363 6.61983C13.1457 7.13116 13.6763 7.85275 13.9528 8.68239C14.2294 9.51202 14.2379 10.4076 13.9771 11.2424C13.7164 12.0771 13.1996 12.8086 12.5 13.3333C12.1746 13.6554 11.9296 14.0495 11.7849 14.4839C11.6401 14.9182 11.5996 15.3805 11.6666 15.8333C11.6666 16.2754 11.4911 16.6993 11.1785 17.0118C10.8659 17.3244 10.442 17.5 9.99998 17.5C9.55795 17.5 9.13403 17.3244 8.82147 17.0118C8.50891 16.6993 8.33331 16.2754 8.33331 15.8333C8.40036 15.3805 8.35986 14.9182 8.21509 14.4839C8.07032 14.0495 7.82534 13.6554 7.49998 13.3333" stroke="white" stroke-width="1.25" stroke-linecap="round" stroke-linejoin="round"/>
<path d="M8.08331 14.1667H11.9166" stroke="white" stroke-width="1.25" stroke-linecap="round" stroke-linejoin="round"/>
</svg>
